<?xml version="1.0" encoding="UTF-8"?>
<svg version="1.1" xmlns="http://www.w3.org/2000/svg" width="276" height="281">
<path d="M0 0 C91.08 0 182.16 0 276 0 C276 92.73 276 185.46 276 281 C184.92 281 93.84 281 0 281 C0 188.27 0 95.54 0 0 Z " fill="#0B0103" transform="translate(0,0)"/>
<path d="M0 0 C5.86907369 2.07931233 11.81889065 3.52835081 17.89135742 4.88916016 C19.2888623 5.20469849 19.2888623 5.20469849 20.71459961 5.52661133 C29.06251074 7.36673418 37.03899827 8.30294282 45.58276367 8.34228516 C46.56389633 8.34798523 47.54502899 8.3536853 48.55589294 8.35955811 C50.6344191 8.36897972 52.71295999 8.37553077 54.79150391 8.37939453 C57.89213263 8.38896954 60.99205955 8.41996459 64.0925293 8.45166016 C83.83200875 8.55640499 103.28754527 6.75289674 122.03588867 0.21728516 C129.88282639 -2.47019593 138.42311958 -3.69947905 146.36791992 -0.75927734 C150.53667528 1.54030157 154.754466 4.32212513 156.83666992 8.76416016 C158.73542877 16.8940572 158.70266726 26.52682347 154.75073242 33.98681641 C152.48565388 37.57319076 150.13778005 41.10090639 147.68432617 44.56103516 C146.08511397 47.74979664 146.29099861 48.79265605 147.39135742 52.13916016 C148.58346428 55.54102607 149.85883547 58.90567692 151.13745117 62.27587891 C157.81065887 81.7387629 156.3008138 104.99037919 149.39135742 124.13916016 C149.04202148 125.17943359 148.69268555 126.21970703 148.33276367 127.29150391 C143.16801388 141.08308852 134.57488333 154.69326928 125.39135742 166.13916016 C124.96274414 166.67847168 124.53413086 167.2177832 124.0925293 167.7734375 C114.09605505 180.24817535 102.9295193 191.0983644 88.39135742 198.13916016 C87.73135742 198.13916016 87.07135742 198.13916016 86.39135742 198.13916016 C86.39135742 198.79916016 86.39135742 199.45916016 86.39135742 200.13916016 C58.40214024 210.88414551 58.40214024 210.88414551 45.62182617 205.78369141 C40.55426749 203.20395476 37.57951058 199.41990311 35.39135742 194.13916016 C35.12573242 191.70166016 35.12573242 191.70166016 35.14135742 189.13916016 C35.13362305 187.87072266 35.13362305 187.87072266 35.12573242 186.57666016 C35.40604587 184.00437205 36.09653872 182.35884935 37.39135742 180.13916016 C36.40135742 180.13916016 35.41135742 180.13916016 34.39135742 180.13916016 C34.39135742 179.47916016 34.39135742 178.81916016 34.39135742 178.13916016 C32.44229492 177.79884766 32.44229492 177.79884766 30.45385742 177.45166016 C25.94475834 176.46064937 22.44653414 174.70570358 18.50463867 172.35009766 C16.23850025 170.97906306 16.23850025 170.97906306 12.95385742 169.82666016 C-2.6091954 162.45468777 -14.21316043 146.95642421 -21.71557617 131.92138672 C-22.48745735 130.38100054 -23.30387334 128.86308108 -24.12817383 127.35009766 C-33.75222425 108.5672077 -33.94163476 85.1744798 -28.60864258 65.13916016 C-27.41372761 61.63846126 -26.12321469 58.22244144 -24.69458008 54.81103516 C-23.29935945 51.55808736 -23.29935945 51.55808736 -22.60864258 48.13916016 C-23.65795783 45.75211929 -23.65795783 45.75211929 -25.29614258 43.38916016 C-31.31808814 33.87420673 -36.03274739 24.75109169 -34.60864258 13.13916016 C-32.73556159 6.54781186 -28.20994512 1.91347535 -22.60864258 -1.86083984 C-14.74978572 -4.51146021 -7.56733957 -2.74145836 0 0 Z " fill="#1D040A" transform="translate(75.608642578125,36.86083984375)"/>
<path d="M0 0 C5.86907369 2.07931233 11.81889065 3.52835081 17.89135742 4.88916016 C19.2888623 5.20469849 19.2888623 5.20469849 20.71459961 5.52661133 C29.06251074 7.36673418 37.03899827 8.30294282 45.58276367 8.34228516 C46.56389633 8.34798523 47.54502899 8.3536853 48.55589294 8.35955811 C50.6344191 8.36897972 52.71295999 8.37553077 54.79150391 8.37939453 C57.89213263 8.38896954 60.99205955 8.41996459 64.0925293 8.45166016 C83.83200875 8.55640499 103.28754527 6.75289674 122.03588867 0.21728516 C129.88282639 -2.47019593 138.42311958 -3.69947905 146.36791992 -0.75927734 C150.53667528 1.54030157 154.754466 4.32212513 156.83666992 8.76416016 C158.73542877 16.8940572 158.70266726 26.52682347 154.75073242 33.98681641 C152.48565388 37.57319076 150.13778005 41.10090639 147.68432617 44.56103516 C146.08511397 47.74979664 146.29099861 48.79265605 147.39135742 52.13916016 C148.58346428 55.54102607 149.85883547 58.90567692 151.13745117 62.27587891 C157.81065887 81.7387629 156.3008138 104.99037919 149.39135742 124.13916016 C149.04202148 125.17943359 148.69268555 126.21970703 148.33276367 127.29150391 C143.16801388 141.08308852 134.57488333 154.69326928 125.39135742 166.13916016 C124.96274414 166.67847168 124.53413086 167.2177832 124.0925293 167.7734375 C114.09605505 180.24817535 102.9295193 191.0983644 88.39135742 198.13916016 C87.73135742 198.13916016 87.07135742 198.13916016 86.39135742 198.13916016 C86.39135742 198.79916016 86.39135742 199.45916016 86.39135742 200.13916016 C58.40214024 210.88414551 58.40214024 210.88414551 45.62182617 205.78369141 C40.55426749 203.20395476 37.57951058 199.41990311 35.39135742 194.13916016 C35.12573242 191.70166016 35.12573242 191.70166016 35.14135742 189.13916016 C35.13362305 187.87072266 35.13362305 187.87072266 35.12573242 186.57666016 C35.40604587 184.00437205 36.09653872 182.35884935 37.39135742 180.13916016 C36.40135742 180.13916016 35.41135742 180.13916016 34.39135742 180.13916016 C34.39135742 179.47916016 34.39135742 178.81916016 34.39135742 178.13916016 C32.44229492 177.79884766 32.44229492 177.79884766 30.45385742 177.45166016 C25.94475834 176.46064937 22.44653414 174.70570358 18.50463867 172.35009766 C16.23850025 170.97906306 16.23850025 170.97906306 12.95385742 169.82666016 C-2.6091954 162.45468777 -14.21316043 146.95642421 -21.71557617 131.92138672 C-22.48745735 130.38100054 -23.30387334 128.86308108 -24.12817383 127.35009766 C-33.75222425 108.5672077 -33.94163476 85.1744798 -28.60864258 65.13916016 C-27.41372761 61.63846126 -26.12321469 58.22244144 -24.69458008 54.81103516 C-23.29935945 51.55808736 -23.29935945 51.55808736 -22.60864258 48.13916016 C-23.65795783 45.75211929 -23.65795783 45.75211929 -25.29614258 43.38916016 C-31.31808814 33.87420673 -36.03274739 24.75109169 -34.60864258 13.13916016 C-32.73556159 6.54781186 -28.20994512 1.91347535 -22.60864258 -1.86083984 C-14.74978572 -4.51146021 -7.56733957 -2.74145836 0 0 Z M-23.42114258 11.76416016 C-25.39909002 15.72005505 -25.5048069 18.90949289 -24.60864258 23.13916016 C-21.56854442 31.15511834 -17.38035478 39.06642768 -11.63989258 45.46337891 C-10.23878649 47.7401763 -10.43018194 49.52025022 -10.60864258 52.13916016 C-11.26864258 52.13916016 -11.92864258 52.13916016 -12.60864258 52.13916016 C-16.4118969 59.88149931 -18.59483534 67.78138737 -20.60864258 76.13916016 C-20.80586914 76.93966797 -21.0030957 77.74017578 -21.20629883 78.56494141 C-23.57808354 93.73975817 -21.01092977 109.28130627 -14.60864258 123.13916016 C-14.1265332 124.24130859 -13.64442383 125.34345703 -13.14770508 126.47900391 C-9.13656775 135.15096982 -4.44971324 141.37507904 2.39135742 148.13916016 C3.21893555 148.98220703 4.04651367 149.82525391 4.89916992 150.69384766 C12.37203744 158.02615967 20.0799229 163.7578199 30.39135742 166.13916016 C30.39135742 166.79916016 30.39135742 167.45916016 30.39135742 168.13916016 C37.60038242 171.45531166 44.52080011 171.8185897 52.39135742 172.13916016 C51.79498651 173.72544624 51.18889817 175.30808075 50.57885742 176.88916016 C50.24241211 177.77087891 49.9059668 178.65259766 49.55932617 179.56103516 C48.42081154 182.07414438 47.03952736 183.94621697 45.39135742 186.13916016 C44.71839003 190.09284356 45.0635685 191.63655048 47.26635742 195.01416016 C52.48768769 198.56466474 57.26142959 197.69249423 63.28588867 196.62744141 C79.94139921 192.85102814 93.16383924 184.88222833 105.39135742 173.13916016 C106.21506836 172.37861328 107.0387793 171.61806641 107.88745117 170.83447266 C120.14436506 159.17032683 129.27561685 144.40785094 136.39135742 129.13916016 C136.91536133 128.02347656 136.91536133 128.02347656 137.44995117 126.88525391 C146.26898704 106.60490295 147.69198238 82.59466515 140.14916992 61.69775391 C138.66461918 58.04786731 137.16416024 54.46361 135.17651367 51.05712891 C134.17123077 48.60143785 134.42051802 47.58316382 135.39135742 45.13916016 C136.58276367 43.28759766 136.58276367 43.28759766 137.95385742 41.51416016 C139.95505849 39.10621012 139.95505849 39.10621012 140.39135742 36.13916016 C141.05135742 36.13916016 141.71135742 36.13916016 142.39135742 36.13916016 C143.03970396 34.86960716 143.68493557 33.59846309 144.32885742 32.32666016 C144.68850586 31.61896484 145.0481543 30.91126953 145.41870117 30.18212891 C147.20675014 26.42650798 147.60703056 23.3244459 147.70385742 19.20166016 C147.74124023 18.16138672 147.77862305 17.12111328 147.81713867 16.04931641 C147.28742935 12.42882607 146.19900708 11.40045637 143.39135742 9.13916016 C139.58292429 6.60020473 136.79445961 6.44985662 132.39135742 7.13916016 C130.53960664 7.8201992 128.70783899 8.55647197 126.89135742 9.32666016 C120.46450886 11.97123676 114.00396391 13.48684602 107.20385742 14.88916016 C106.19452148 15.09951904 105.18518555 15.30987793 104.14526367 15.52661133 C94.12198647 17.53143076 84.32372784 18.29824474 74.11010742 18.34228516 C73.05714478 18.34798523 72.00418213 18.3536853 70.91931152 18.35955811 C68.70069362 18.36895103 66.48206213 18.37551919 64.26342773 18.37939453 C60.92820851 18.38905343 57.59361887 18.42011349 54.25854492 18.45166016 C39.56988438 18.52438713 25.38736472 17.99525594 11.39135742 13.13916016 C9.62627713 12.81448845 7.85492858 12.52201938 6.07885742 12.26416016 C2.27406532 11.62487259 -0.8357927 10.71440127 -4.29614258 9.01416016 C-11.57338979 5.53826569 -17.35821019 6.32842767 -23.42114258 11.76416016 Z " fill="#EC1450" transform="translate(75.608642578125,36.86083984375)"/>
<path d="M0 0 C1.2076235 2.3513823 2.3130838 4.71422243 3.375 7.13671875 C7.39637812 15.92381661 12.03631402 24.39376841 21.640625 27.98828125 C24.33594645 28.66118402 24.33594645 28.66118402 28 29 C28 29.66 28 30.32 28 31 C38.395 30.505 38.395 30.505 49 30 C49.85464844 31.43214844 50.70929688 32.86429688 51.58984375 34.33984375 C52.70565205 36.20577528 53.82154166 38.07165819 54.9375 39.9375 C55.78344727 41.35579102 55.78344727 41.35579102 56.64648438 42.80273438 C57.18466797 43.70185547 57.72285156 44.60097656 58.27734375 45.52734375 C58.77484131 46.35999756 59.27233887 47.19265137 59.78491211 48.05053711 C60.85395608 49.92930803 60.85395608 49.92930803 62 51 C66.06648024 51.50375834 66.06648024 51.50375834 70 51 C74.12950605 46.73991668 76.83401318 41.31452921 79.73242188 36.17578125 C82.67817809 31.10727397 82.67817809 31.10727397 86 30 C87.4002633 29.95323218 88.80284642 29.96150456 90.203125 30.0078125 C91.01910156 30.02457031 91.83507812 30.04132813 92.67578125 30.05859375 C94.37653369 30.10246749 96.07709947 30.1544023 97.77734375 30.21484375 C107.5242907 30.38315838 113.85608385 26.47784719 121 20 C126.49904363 14.24027936 129.22358824 7.37100467 132 0 C132.33 0 132.66 0 133 0 C134.24676939 20.08684022 128.73741263 39.58366434 117 56 C116.34128906 56.99773437 115.68257813 57.99546875 115.00390625 59.0234375 C105.21499718 73.71552562 93.48684827 86.72160295 77 94 C76.01 94 75.02 94 74 94 C74.02320313 93.19175781 74.04640625 92.38351563 74.0703125 91.55078125 C74.08835937 90.48214844 74.10640625 89.41351563 74.125 88.3125 C74.14820313 87.25675781 74.17140625 86.20101562 74.1953125 85.11328125 C73.9948036 81.91716934 73.49234713 79.82162322 72 77 C68.2097198 74.47314654 64.78596741 74.43397802 60.375 74.0625 C53.88399852 73.42488211 48.03047604 72.60545922 42 70 C41.29230469 69.73574219 40.58460937 69.47148437 39.85546875 69.19921875 C28.83353785 64.81747039 20.3464631 57.1470668 13 48 C12.44570312 47.31550781 11.89140625 46.63101563 11.3203125 45.92578125 C1.99602458 33.24378343 -1.9914967 16.49501823 -1 1 C-0.67 0.67 -0.34 0.34 0 0 Z " fill="#FAF9F9" transform="translate(71,120)"/>
<path d="M0 0 C4.94859445 3.08610376 7.98239827 7.64764683 9.78515625 13.11328125 C10.69408021 20.18386417 10.085613 26.29579221 5.78515625 32.11328125 C2.95479486 35.14797354 0.04117251 37.62220245 -4.21484375 38.11328125 C-4.21484375 38.77328125 -4.21484375 39.43328125 -4.21484375 40.11328125 C-16.82216636 40.73501223 -16.82216636 40.73501223 -21.71484375 38.55078125 C-27.82383495 32.59451483 -32.46136824 27.70587189 -32.58984375 18.73828125 C-32.43320203 12.24635226 -30.81793156 8.72160666 -26.2734375 4.16796875 C-18.72166027 -2.70234055 -9.61258737 -4.16479658 0 0 Z " fill="#F2B0C3" transform="translate(119.21484375,94.88671875)"/>
<path d="M0 0 C3.74843547 3.42322874 5.81450707 6.74975795 6.23828125 11.890625 C6.45128148 21.53168816 5.10618863 25.86722551 -1.5625 32.875 C-5.42753539 36.7142111 -8.50732424 37.15403569 -13.875 37.1875 C-14.90367187 37.20167969 -15.93234375 37.21585938 -16.9921875 37.23046875 C-20.05463488 36.99581369 -22.23248861 36.29184572 -25 35 C-25 34.34 -25 33.68 -25 33 C-25.90685547 32.85691406 -25.90685547 32.85691406 -26.83203125 32.7109375 C-29.4828509 31.84165971 -30.15523505 30.91614697 -31.6875 28.625 C-32.31205078 27.71621094 -32.31205078 27.71621094 -32.94921875 26.7890625 C-36.15556499 21.32993025 -35.84620341 13.91548357 -34.5390625 7.8671875 C-32.82700301 3.37554906 -29.89674746 -0.24676759 -26 -3 C-16.70531025 -7.02192579 -8.24066462 -5.43713954 0 0 Z " fill="#F1B0C2" transform="translate(181,98)"/>
<path d="M0 0 C0.33 0 0.66 0 1 0 C2.24676939 20.08684022 -3.26258737 39.58366434 -15 56 C-15.65871094 56.99773437 -16.31742188 57.99546875 -16.99609375 59.0234375 C-26.78500282 73.71552562 -38.51315173 86.72160295 -55 94 C-55.99 94 -56.98 94 -58 94 C-58 92.02 -58 90.04 -58 88 C-57.67 88.66 -57.34 89.32 -57 90 C-42.62861403 80.46950194 -32.36614451 70.03338683 -23.4453125 55.0546875 C-22.72988281 54.03761719 -22.72988281 54.03761719 -22 53 C-21.34 53 -20.68 53 -20 53 C-19.8453125 51.9171875 -19.8453125 51.9171875 -19.6875 50.8125 C-18.93648002 47.74014552 -17.64865151 45.67905871 -16 43 C-15.30420546 40.80869466 -15.30420546 40.80869466 -15 39 C-14.34 39 -13.68 39 -13 39 C-12.81824219 38.18208984 -12.81824219 38.18208984 -12.6328125 37.34765625 C-11.421875 31.8984375 -10.2109375 26.44921875 -9 21 C-9.99 21.99 -10.98 22.98 -12 24 C-12.66 23.67 -13.32 23.34 -14 23 C-13.46890625 22.443125 -12.9378125 21.88625 -12.390625 21.3125 C-6.25620556 14.68553594 -2.59496208 8.64987359 0 0 Z " fill="#F0B3C5" transform="translate(203,120)"/>
<path d="M0 0 C4.71698456 2.94166433 8.40327369 7.72393925 9.78515625 13.11328125 C9.91015625 16.42578125 9.91015625 16.42578125 9.78515625 19.11328125 C9.39328125 18.57703125 9.00140625 18.04078125 8.59765625 17.48828125 C3.28955532 9.89308169 3.28955532 9.89308169 -4.21484375 5.11328125 C-13.22903089 4.40656605 -13.22903089 4.40656605 -21.77734375 6.73828125 C-27.64402633 12.45453607 -30.00443871 15.98369517 -31.21484375 24.11328125 C-31.54484375 24.11328125 -31.87484375 24.11328125 -32.21484375 24.11328125 C-32.66749493 17.16005621 -32.92985143 11.57276383 -28.21484375 6.11328125 C-20.15409321 -1.9636881 -10.99289819 -4.76283679 0 0 Z " fill="#E71A53" transform="translate(119.21484375,94.88671875)"/>
<path d="M0 0 C5.89969065 0.17454706 11.52303652 3.06127764 15.8359375 7 C19.9205527 11.7220985 20.23961025 15.36315664 20.125 21.4375 C18.125 18.4375 18.125 18.4375 17.4375 16.5625 C14.6547628 12.05711596 9.17234525 8.7916658 4.125 7.4375 C-1.98327427 6.92847714 -7.36535478 7.60366718 -12.875 10.4375 C-14.97564845 12.2983722 -16.24709415 14.09140039 -17.875 16.4375 C-18.473125 17.22125 -19.07125 18.005 -19.6875 18.8125 C-20.079375 19.34875 -20.47125 19.885 -20.875 20.4375 C-20.875 13.16127388 -19.22172572 9.47664093 -14.12109375 4.2578125 C-9.6666595 0.64778405 -5.52187918 0.62343797 0 0 Z " fill="#ED1E57" transform="translate(166.875,92.5625)"/>
<path d="M0 0 C3.9760803 -0.46233492 5.56851204 -0.30954571 8.875 2.0625 C11.56064937 5.7750153 11.71014811 7.50239531 11 12 C9.5 15.4375 9.5 15.4375 7 18 C3.02470251 18.70529472 0.74023867 18.87011934 -2.8515625 17.07421875 C-4.5 15.875 -4.5 15.875 -7 13 C-7.375 9.6875 -7.375 9.6875 -7 7 C-4.36 7 -1.72 7 1 7 C0.67 4.69 0.34 2.38 0 0 Z " fill="#2C1218" transform="translate(106,105)"/>
<path d="M0 0 C3.32739873 0.30249079 5.5627594 0.71234171 8.375 2.5625 C10.66075453 5.99113179 10.74053192 9.0634882 10 13 C8.5625 16 8.5625 16 6 18 C1.87264108 18.78760611 -1.68302811 18.54606151 -5.5625 16.9375 C-7.7214109 14.02766357 -7.26484554 11.5092034 -7 8 C-6.030625 8.020625 -5.06125 8.04125 -4.0625 8.0625 C-1.12534105 8.35618499 -1.12534105 8.35618499 0 7 C0.04092937 4.66702567 0.04241723 2.33294775 0 0 Z " fill="#2B1117" transform="translate(165,105)"/>
<path d="M0 0 C-0.97953773 5.87722639 -4.97962084 10.78749653 -9 15 C-11.86913112 16.04928224 -12.95294277 15.7462181 -16 15 C-16.33 14.67 -16.66 14.34 -17 14 C-18.34747084 13.76924918 -19.70377565 13.58846937 -21.0625 13.4375 C-22.361875 13.293125 -23.66125 13.14875 -25 13 C-25.33 11.68 -25.66 10.36 -26 9 C-22.23242503 7.49172203 -18.46043651 5.99481006 -14.6875 4.5 C-13.61564453 4.07074219 -12.54378906 3.64148437 -11.43945312 3.19921875 C-10.41142578 2.79316406 -9.38339844 2.38710938 -8.32421875 1.96875 C-7.37635498 1.59169922 -6.42849121 1.21464844 -5.4519043 0.82617188 C-3 0 -3 0 0 0 Z " fill="#E4144D" transform="translate(208,60)"/>
<path d="M0 0 C6.29136056 1.09583124 12.11117554 2.52305116 18 5 C18.67675781 5.28359375 19.35351562 5.5671875 20.05078125 5.859375 C21.70510826 6.56221533 23.35326424 7.2795531 25 8 C25 8.99 25 9.98 25 11 C19.3297637 12.54642808 13.852795 13.48517081 8 14 C6.65804628 12.23569031 5.32668332 10.4633209 4 8.6875 C3.2575 7.70136719 2.515 6.71523437 1.75 5.69921875 C0 3 0 3 0 0 Z " fill="#EB1450" transform="translate(67,61)"/>
<path d="M0 0 C0.66 0.33 1.32 0.66 2 1 C-1.41139003 2.09651823 -4.20655581 1.94215473 -7.75 1.5625 C-8.73484375 1.46066406 -9.7196875 1.35882813 -10.734375 1.25390625 C-11.48203125 1.17011719 -12.2296875 1.08632813 -13 1 C-13.28875 1.598125 -13.5775 2.19625 -13.875 2.8125 C-15 5 -15 5 -17 8 C-17.39387788 10.32387947 -17.73486085 12.65793749 -18 15 C-18.33 15 -18.66 15 -19 15 C-19.47676175 10.23238247 -19.83824 6.36767485 -16.6875 2.5 C-11.89495527 -1.95818114 -5.99751538 -1.99917179 0 0 Z " fill="#59071D" transform="translate(70,45)"/>
<path d="M0 0 C1.32 0.66 2.64 1.32 4 2 C4 6.26826873 3.62386487 6.93882432 1 10 C-2.0651341 5.5862069 -2.0651341 5.5862069 -1.75 2.75 C-1 1 -1 1 0 0 Z " fill="#E9E8E8" transform="translate(136,138)"/>
<path d="M0 0 C0.33 0 0.66 0 1 0 C1 5.28 1 10.56 1 16 C0.67 16 0.34 16 0 16 C-0.33 14.02 -0.66 12.04 -1 10 C-1.99 10.66 -2.98 11.32 -4 12 C-3.52309796 10.37433394 -3.04340334 8.74948689 -2.5625 7.125 C-2.29566406 6.22007813 -2.02882812 5.31515625 -1.75390625 4.3828125 C-1 2 -1 2 0 0 Z " fill="#BA7A8C" transform="translate(203,120)"/>
<path d="M0 0 C1.96301592 3.50538557 2.95902388 7.13351728 4 11 C3.01 10.67 2.02 10.34 1 10 C0.34 11.32 -0.32 12.64 -1 14 C-1.02685938 11.85423363 -1.04633088 9.70837355 -1.0625 7.5625 C-1.07410156 6.36753906 -1.08570312 5.17257813 -1.09765625 3.94140625 C-1 1 -1 1 0 0 Z " fill="#A69EA0" transform="translate(71,120)"/>
<path d="M0 0 C0.99 0 1.98 0 3 0 C2.54273352 2.13391026 2.05870034 3.89360563 1 5.8125 C-0.36691428 8.80262498 -0.62537436 11.75324449 -1 15 C-1.33 15 -1.66 15 -2 15 C-2.05429959 13.25034642 -2.09292823 11.50020213 -2.125 9.75 C-2.15980469 8.28820312 -2.15980469 8.28820312 -2.1953125 6.796875 C-1.99862781 3.9803502 -1.44568916 2.39050964 0 0 Z " fill="#D22555" transform="translate(89,104)"/>
<path d="M0 0 C0.66 0.33 1.32 0.66 2 1 C1.38125 1.721875 0.7625 2.44375 0.125 3.1875 C-1.83666353 5.78381938 -2.95316 7.94671666 -4 11 C-4.33 10.34 -4.66 9.68 -5 9 C-5.66 9 -6.32 9 -7 9 C-5.44499019 5.18315774 -2.96404505 2.80804268 0 0 Z " fill="#DC174D" transform="translate(97,95)"/>
<path d="M0 0 C6.27 0.33 12.54 0.66 19 1 C19 1.33 19 1.66 19 2 C16.39635591 2.24867947 13.79410106 2.47457902 11.1875 2.6875 C10.44951172 2.76033203 9.71152344 2.83316406 8.95117188 2.90820312 C6.79296875 3.07421875 6.79296875 3.07421875 3 3 C2.01 2.01 1.02 1.02 0 0 Z " fill="#58071D" transform="translate(121,243)"/>
<path d="M0 0 C-2.76280538 1.84187025 -4.80707826 2.72248277 -7.9375 3.6875 C-8.79214844 3.95949219 -9.64679688 4.23148438 -10.52734375 4.51171875 C-13.10510574 5.02075548 -14.54449337 4.84888744 -17 4 C-14.92227529 3.13227971 -12.83756823 2.28126381 -10.75 1.4375 C-9.58984375 0.96183594 -8.4296875 0.48617187 -7.234375 -0.00390625 C-4.13733356 -0.95770524 -2.92678299 -1.20983356 0 0 Z " fill="#630821" transform="translate(162,238)"/>
<path d="M0 0 C0.66 0.33 1.32 0.66 2 1 C-0.97 4.3 -3.94 7.6 -7 11 C-7 7.22089522 -6.00296038 6.53893899 -3.5 3.8125 C-2.8503125 3.09707031 -2.200625 2.38164063 -1.53125 1.64453125 C-1.0259375 1.10183594 -0.520625 0.55914062 0 0 Z " fill="#C81144" transform="translate(155,95)"/>
<path d="M0 0 C0.66 0.33 1.32 0.66 2 1 C0.87895467 2.31587941 -0.24696965 3.62760353 -1.375 4.9375 C-2.00148437 5.66839844 -2.62796875 6.39929688 -3.2734375 7.15234375 C-5 9 -5 9 -7 10 C-5.6062718 5.56541027 -3.39417765 3.12621626 0 0 Z " fill="#F995B1" transform="translate(155,101)"/>
<path d="M0 0 C0.66 0.33 1.32 0.66 2 1 C0.88200014 2.33920838 -0.24461897 3.67122556 -1.375 5 C-2.00148438 5.7425 -2.62796875 6.485 -3.2734375 7.25 C-4.12808594 8.11625 -4.12808594 8.11625 -5 9 C-5.66 9 -6.32 9 -7 9 C-5.44499019 5.18315774 -2.96404505 2.80804268 0 0 Z " fill="#F89BB5" transform="translate(97,101)"/>
<path d="M0 0 C2.875 -0.1875 2.875 -0.1875 6 0 C6.66 0.99 7.32 1.98 8 3 C6.35 2.67 4.7 2.34 3 2 C2.67 3.32 2.34 4.64 2 6 C1.34 4.02 0.68 2.04 0 0 Z " fill="#4F2E37" transform="translate(106,105)"/>
</svg>
